<?xml version="1.0" encoding="utf-8"?>
<!-- Generator: Adobe Illustrator 16.0.0, SVG Export Plug-In . SVG Version: 6.00 Build 0)  -->
<!DOCTYPE svg PUBLIC "-//W3C//DTD SVG 1.1//EN" "http://www.w3.org/Graphics/SVG/1.1/DTD/svg11.dtd">
<svg version="1.1" xmlns="http://www.w3.org/2000/svg" xmlns:xlink="http://www.w3.org/1999/xlink" x="0px" y="0px" width="500px"
	 height="500px" viewBox="0 0 500 500" enable-background="new 0 0 500 500" xml:space="preserve">
<g id="Layer_2">
</g>
<g id="Layer_1">
	<g>
		<circle fill="#41A594" cx="250" cy="249.989" r="240.935"/>
		<path fill="#FFFFFF" d="M291.617,68.409c-1.01-1.085-2.421-1.694-3.897-1.682l-77.509,0.55c-1.464,0.006-2.86,0.627-3.847,1.714
			c-0.988,1.075-1.487,2.521-1.365,3.979l7.121,43.77c0.229,2.75,2.533,4.858,5.289,4.835l61.099-0.43
			c2.732-0.022,4.995-2.124,5.213-4.843l9.287-43.888C293.123,70.944,292.62,69.487,291.617,68.409z"/>
		<path fill="#223971" d="M283.666,115.026l-72.205,0.518l-13.413,89.99c-0.162,1.081,0.022,2.19,0.52,3.162l46.749,90.419
			l-2.461-104.984c-5.357-2.075-9.182-7.247-9.223-13.323c-0.055-7.936,6.35-14.44,14.293-14.499
			c7.936-0.053,14.439,6.36,14.494,14.296c0.041,6.076-5.885,11.307-11.211,13.451l-0.442,110.793l47.114-96.857
			c0.482-0.983,0.646-2.089,0.471-3.17L283.666,115.026z"/>
		<path fill="#FFFFFF" d="M210.211,67.277c-1.464,0.006-2.86,0.627-3.847,1.714c-0.988,1.075-1.487,2.521-1.365,3.979l7.121,43.77
			c0.229,2.75,2.533,4.858,5.289,4.835l30.196-0.208l0.346-54.359L210.211,67.277z"/>
		<path fill="#223971" d="M211.461,115.543l-13.413,89.99c-0.162,1.081,0.022,2.19,0.52,3.162l48.204,96.224l-1.742-110.789
			c-5.353-2.075-11.355-7.247-11.396-13.323c-0.055-7.936,6.35-14.44,14.293-14.499l-0.361-51.025L211.461,115.543L211.461,115.543z
			"/>
		<path fill="#FFFFFF" d="M325.164,330.844l-151.691,1.073c-2.913,0.022-5.286-2.318-5.304-5.226
			c-0.018-2.909,2.318-5.286,5.231-5.304l151.69-1.077c2.913-0.022,5.282,2.318,5.304,5.23
			C330.412,328.448,328.076,330.821,325.164,330.844z"/>
		<g>
			<g>
				<path fill="#223971" d="M173.301,307.337l-28.088,0.203c-2.917,0.014-5.253,2.395-5.235,5.304l0.201,28.09
					c0.02,2.908,2.395,5.254,5.306,5.228l28.088-0.199c2.912-0.018,5.253-2.396,5.23-5.304l-0.198-28.093
					C178.582,309.66,176.207,307.319,173.301,307.337z"/>
				<path fill="#223971" d="M353.08,306.065l-28.088,0.199c-2.913,0.018-5.25,2.395-5.227,5.3l0.193,28.096
					c0.023,2.906,2.398,5.246,5.305,5.228l28.092-0.201c2.912-0.023,5.249-2.392,5.23-5.304l-0.203-28.089
					C358.365,308.388,355.994,306.039,353.08,306.065z"/>
			</g>
		</g>
		<g>
			<path fill="#223971" d="M139.978,204.542c0,0,0.427,1.252,1.29,3.571c0.853,2.323,2.189,5.698,3.954,9.956
				c1.783,4.251,4.083,9.353,6.883,15.111c2.822,5.748,6.215,12.12,10.225,18.865c4.037,6.727,8.76,13.79,14.261,20.82
				c5.528,7.001,11.912,13.933,19.274,20.127c3.731,3.025,7.617,5.992,11.846,8.486c1.052,0.63,2.107,1.262,3.166,1.896
				c1.099,0.552,2.201,1.106,3.306,1.661c2.171,1.195,4.491,2.071,6.783,3.035c1.132,0.52,2.326,0.877,3.513,1.252
				c1.186,0.38,2.374,0.762,3.564,1.143c1.203,0.329,2.434,0.562,3.65,0.851l1.832,0.415c0.609,0.144,1.219,0.289,1.846,0.348
				c4.971,0.769,9.964,1.126,15.07,0.977c9.993-0.242,19.963-2.843,28.941-7.104c8.967-4.345,17.139-10.104,24.213-16.662
				c7.072-6.563,13.266-13.676,18.637-20.822c5.348-7.167,9.969-14.306,13.948-21.076c3.95-6.788,7.319-13.177,10.142-18.928
				c2.799-5.762,5.106-10.861,6.912-15.104c3.613-8.488,5.352-13.487,5.352-13.487s-0.284,1.292-0.932,3.686
				c-0.66,2.39-1.629,5.902-3.092,10.3c-1.451,4.401-3.301,9.728-5.747,15.716c-2.426,5.997-5.372,12.693-9.046,19.788
				c-3.648,7.105-7.963,14.651-13.217,22.215c-5.234,7.567-11.326,15.241-18.65,22.281c-3.643,3.532-7.596,6.897-11.846,10.001
				c-4.244,3.112-8.814,5.934-13.686,8.296c-9.748,4.711-20.617,7.684-31.761,8.024l-1.979,0.039l-0.494,0.01l-0.125,0.002
				c-0.21,0-0.132-0.003-0.213-0.005l-0.258-0.012l-1.033-0.049l-4.133-0.202c-0.688-0.042-1.377-0.053-2.062-0.121l-2.048-0.286
				l-4.089-0.578c-0.685-0.074-1.353-0.235-2.021-0.396l-2.005-0.468c-1.333-0.325-2.678-0.599-3.993-0.969
				c-1.299-0.426-2.596-0.852-3.89-1.276c-1.296-0.421-2.595-0.83-3.826-1.399c-10.09-4.026-18.995-10.056-26.658-16.726
				c-7.682-6.697-13.996-14.237-19.423-21.68c-5.438-7.453-9.863-14.951-13.585-22.023c-3.745-7.066-6.716-13.757-9.15-19.753
				c-2.453-5.99-4.294-11.32-5.727-15.729c-1.435-4.409-2.38-7.928-3.02-10.323C140.25,205.835,139.978,204.542,139.978,204.542z"/>
		</g>
		<g>
			<text transform="matrix(1 0 0 1 163.5313 408.8604)"><tspan x="0" y="0" fill="#FFFFFF" font-family="'LatoLatinBlack-Regular'" font-size="47.7675">Graphic</tspan><tspan x="9.601" y="43.614" fill="#FFFFFF" font-family="'LatoLatinBlack-Regular'" font-size="47.7675">Design</tspan></text>
		</g>
	</g>
</g>
</svg>
