<?xml version="1.0" encoding="utf-8"?>
<!-- Generator: Adobe Illustrator 16.0.0, SVG Export Plug-In . SVG Version: 6.00 Build 0)  -->
<!DOCTYPE svg PUBLIC "-//W3C//DTD SVG 1.1//EN" "http://www.w3.org/Graphics/SVG/1.1/DTD/svg11.dtd">
<svg version="1.1" id="Layer_1" xmlns="http://www.w3.org/2000/svg" xmlns:xlink="http://www.w3.org/1999/xlink" x="0px" y="0px"
	 width="500px" height="500px" viewBox="0 0 500 500" enable-background="new 0 0 500 500" xml:space="preserve">
<g id="Layer_2">
</g>
<g>
	<circle fill="#182C51" cx="250" cy="249.99" r="240.935"/>
	<path fill="#FFFFFF" d="M389.668,320.081c0,4.664-6.756,8.444-15.105,8.444h-28.969c-8.35,0-15.115-3.78-15.115-8.444v-51.37
		c0-4.664,6.766-8.441,15.115-8.441h28.969c8.35,0,15.105,3.777,15.105,8.441V320.081z"/>
	<path fill="#6AC6B9" d="M341.831,351.747c0,4.663-3.784,8.446-8.441,8.446H126.505c-4.665,0-8.445-3.783-8.445-8.444V240.658
		c0-4.664,3.78-8.444,8.445-8.444l206.885-0.002c4.657,0,8.441,3.783,8.441,8.446V351.747z"/>
	<path fill="#6AC6B9" d="M341.831,351.747c0,4.663-1.89,8.446-4.222,8.446H232.76c0-17.602,0-106.961,0-127.979l104.85-0.002
		c2.332,0,4.222,3.783,4.222,8.446V351.747z"/>
	<polygon fill="#6AC6B9" points="436.125,348.23 376.311,328.525 376.311,260.27 435.423,236.345 	"/>
	<rect x="102.576" y="253.23" fill="#FFFFFF" width="15.483" height="23.926"/>
	<path fill="#6AC6B9" d="M102.576,245.491c0,0,12.668,25.333,0,37.999H84.984c0,0,3.521-19.002-21.109-30.26
		C63.875,253.23,65.984,243.378,102.576,245.491z"/>
	<g>
		<circle fill="#6AC6B9" cx="296.155" cy="158.891" r="78.111"/>
		<g>
			<path fill="#FFFFFF" d="M275.048,106.218c0,0,21.109-13.856,42.222,0l-21.112,36.139L275.048,106.218z"/>
			<path fill="#FFFFFF" d="M317.27,213.383c0,0-21.112,13.861-42.222,0l21.109-36.132L317.27,213.383z"/>
		</g>
		<g>
			<path fill="#FFFFFF" d="M239.202,150.374c0,0-1.444-25.214,21.116-36.563l20.729,36.352L239.202,150.374z"/>
			<path fill="#FFFFFF" d="M353.116,167.41c0.616,10.771,0.83,25.524-21.118,36.563l-20.731-36.354L353.116,167.41z"/>
		</g>
		<g>
			<path fill="#FFFFFF" d="M353.327,151.909c0,0,2.122-25.162-20.123-37.114l-21.706,35.778L353.327,151.909z"/>
			<path fill="#FFFFFF" d="M238.987,165.873c0,0-2.117,25.163,20.127,37.118l21.702-35.785L238.987,165.873z"/>
		</g>
		<path fill="#223971" d="M305.381,160.298c0,4.706-3.816,8.519-8.52,8.519c-4.709,0-8.521-3.813-8.521-8.519
			s3.813-8.522,8.521-8.522C301.564,151.776,305.381,155.592,305.381,160.298z"/>
	</g>
	<g>
		<path fill="#6AC6B9" d="M223.946,178.042c0,33.712-27.325,61.04-61.031,61.04c-33.714,0-61.04-27.331-61.04-61.04
			c0-33.71,27.326-61.035,61.04-61.035C196.621,117.006,223.946,144.334,223.946,178.042z"/>
		<g>
			<path fill="#FFFFFF" d="M145.656,134.947c0,0,17.258-11.331,34.507,0l-17.249,29.535L145.656,134.947z"/>
			<path fill="#FFFFFF" d="M180.164,222.542c0,0-17.249,11.326-34.507,0l17.258-29.535L180.164,222.542z"/>
		</g>
		<g>
			<path fill="#FFFFFF" d="M116.358,171.034c0,0-1.183-20.607,17.257-29.883l16.944,29.714L116.358,171.034z"/>
			<path fill="#FFFFFF" d="M209.467,184.964c0,0,1.178,20.607-17.262,29.881l-16.943-29.711L209.467,184.964z"/>
		</g>
		<g>
			<path fill="#FFFFFF" d="M209.639,172.292c0,0,1.734-20.571-16.448-30.34l-17.743,29.247L209.639,172.292z"/>
			<path fill="#FFFFFF" d="M116.186,183.706c0,0-1.739,20.568,16.448,30.34l17.738-29.249L116.186,183.706z"/>
		</g>
		<path fill="#223971" d="M168.656,179.26c0,2.837-2.3,5.142-5.133,5.142c-2.842,0-5.142-2.304-5.142-5.142
			c0-2.838,2.3-5.138,5.142-5.138C166.356,174.122,168.656,176.423,168.656,179.26z"/>
	</g>
	<g>
		<text transform="matrix(1 0 0 1 184.999 436.5684)" fill="#FFFFFF" font-family="'LatoLatinBlack-Regular'" font-size="47.7675">Video</text>
	</g>
</g>
</svg>
