<?xml version="1.0" encoding="utf-8"?>
<!-- Generator: Adobe Illustrator 21.0.2, SVG Export Plug-In . SVG Version: 6.00 Build 0)  -->
<svg version="1.1" id="Layer_1" xmlns="http://www.w3.org/2000/svg" xmlns:xlink="http://www.w3.org/1999/xlink" x="0px" y="0px"
	 viewBox="0 0 2500 2500" style="enable-background:new 0 0 2500 2500;" xml:space="preserve">
<g>
	<path d="M1127.8,1672.9l-28.2,112.4h-25.9l-18.5-74.4l-17.8,74.4h-25.7l-28.9-112.4h26.9l15.5,68.6c0.1,0.3,0.4,1.5,0.9,3.6
		c0.2,0.8,0.5,1.9,0.9,3.5l18.4-75.7h24.3l18.9,75.7c0.4-1.4,0.9-3.8,1.6-7.1l15.9-68.6H1127.8z"/>
	<path d="M1230.8,1787c-15.1,0-26.8-5.7-35.1-17c-8.3-11.4-12.4-25.1-12.4-41.3c0-16.4,4.2-30.1,12.6-41.1
		c8.4-11,20.3-16.5,35.9-16.5c15.7,0,27.5,5.9,35.5,17.6c8,11.7,12,25.1,12,40.2c0,16.3-4.1,30.1-12.3,41.3
		C1258.7,1781.4,1246.6,1787,1230.8,1787z M1231.6,1692.7c-13.8,0-20.7,12.1-20.7,36.4c0,24.3,6.9,36.5,20.7,36.5
		c13.4,0,20.1-12.1,20.1-36.4C1251.6,1704.8,1245,1692.7,1231.6,1692.7z"/>
	<path d="M1373.5,1740.8v44.5H1347v-112.4h49.4c9.1,0,16.4,1.1,21.9,3.2c5.5,2.1,10.1,6,13.7,11.6c3.6,5.7,5.4,11.9,5.4,18.8
		c0,13.5-6.5,23.2-19.5,29l20.7,49.7h-29.1l-17.3-44.5H1373.5z M1373.5,1692.9v28.7h16.1c5.3,0,9.1-0.4,11.5-1.1
		c2.4-0.7,4.5-2.4,6.4-4.9c1.9-2.6,2.8-5.5,2.8-8.8c0-3.1-0.9-5.9-2.8-8.4c-1.9-2.5-3.9-4-6.1-4.6c-2.2-0.6-6.3-0.9-12.4-0.9H1373.5
		z"/>
	<path d="M1534.3,1672.9v52.8l35.2-52.8h25.2l-27,40.1l33.7,72.3h-29l-22.4-48.8l-15.8,23v25.8h-25.9v-112.4H1534.3z"/>
	<path d="M1743,1697.6l-22.4,7.5c-3-8.9-9.4-13.3-19.1-13.3c-10.4,0-15.6,3.4-15.6,10.1c0,2.7,1,5,2.9,6.8c1.9,1.9,6.3,3.5,13.2,4.9
		c11.5,2.3,19.8,4.6,25.2,7c5.3,2.4,9.8,6.2,13.4,11.4c3.6,5.2,5.5,11.1,5.5,17.6c0,10.2-3.9,18.9-11.7,26.3
		c-7.8,7.4-19.4,11.1-34.8,11.1c-11.5,0-21.3-2.6-29.4-7.9c-8.1-5.2-13.4-13-16-23.3l24.4-5.5c2.7,10.5,10.4,15.7,22.8,15.7
		c6,0,10.5-1.2,13.5-3.5c3-2.3,4.4-5.1,4.4-8.4c0-3.3-1.3-5.8-4-7.7s-7.9-3.5-15.5-5.1c-14.3-3-24.5-7-30.6-12.1
		c-6.1-5.1-9.1-12.6-9.1-22.5c0-10,3.6-18.4,10.9-25.3c7.3-6.9,17.1-10.3,29.6-10.3C1722.5,1671.2,1736.7,1680,1743,1697.6z"/>
	<path d="M1900.6,1672.9v112.4h-25.9v-46.4h-35.1v46.4h-25.9v-112.4h25.9v43.8h35.1v-43.8H1900.6z"/>
	<path d="M2016,1787c-15.1,0-26.8-5.7-35.1-17c-8.3-11.4-12.4-25.1-12.4-41.3c0-16.4,4.2-30.1,12.6-41.1c8.4-11,20.3-16.5,35.9-16.5
		c15.7,0,27.5,5.9,35.5,17.6c8,11.7,12,25.1,12,40.2c0,16.3-4.1,30.1-12.3,41.3C2043.8,1781.4,2031.8,1787,2016,1787z
		 M2016.7,1692.7c-13.8,0-20.7,12.1-20.7,36.4c0,24.3,6.9,36.5,20.7,36.5c13.4,0,20.1-12.1,20.1-36.4
		C2036.8,1704.8,2030.1,1692.7,2016.7,1692.7z"/>
	<path d="M2158.9,1743.6v41.7h-26.8v-112.4h44.3c9.9,0,17.4,1.1,22.7,3.2c5.2,2.1,9.9,5.9,14,11.3s6.2,12.1,6.2,20
		c0,5.5-1.1,11-3.3,16.2c-2.2,5.3-5.3,9.4-9.3,12.4c-4,3-7.9,5-11.7,6c-3.8,1-9.6,1.5-17.7,1.5H2158.9z M2158,1723.1h17.1
		c6.5,0,11.1-1.5,13.8-4.5c2.6-3,4-6.5,4-10.4c0-4.6-1.5-8.2-4.4-10.9c-2.9-2.7-7.4-4-13.4-4h-17V1723.1z"/>
	<path d="M2362.1,1697.6l-22.4,7.5c-3-8.9-9.4-13.3-19.1-13.3c-10.4,0-15.6,3.4-15.6,10.1c0,2.7,1,5,2.9,6.8
		c1.9,1.9,6.3,3.5,13.2,4.9c11.5,2.3,19.8,4.6,25.2,7c5.3,2.4,9.8,6.2,13.4,11.4c3.6,5.2,5.5,11.1,5.5,17.6
		c0,10.2-3.9,18.9-11.7,26.3c-7.8,7.4-19.4,11.1-34.8,11.1c-11.5,0-21.3-2.6-29.4-7.9c-8.1-5.2-13.4-13-16-23.3l24.4-5.5
		c2.7,10.5,10.4,15.7,22.8,15.7c6,0,10.5-1.2,13.5-3.5c3-2.3,4.4-5.1,4.4-8.4c0-3.3-1.3-5.8-4-7.7s-7.9-3.5-15.5-5.1
		c-14.3-3-24.5-7-30.6-12.1c-6.1-5.1-9.1-12.6-9.1-22.5c0-10,3.6-18.4,10.9-25.3c7.3-6.9,17.1-10.3,29.6-10.3
		C2341.7,1671.2,2355.8,1680,2362.1,1697.6z"/>
</g>
<g>
	<path d="M723.4,855.9h7.7v-37.6H563.4v37.6h7.7c17.1,0,27.7,2.9,31.6,8.6c4.2,6.1,2.7,17.8-4.5,36l-55.1,143.4l-88-225.6h-58.3
		l-87.2,225.6l-55.1-143.4c-7.4-18.4-9-30.1-5.1-35.8c3.9-5.8,15.3-8.7,34.7-8.7h7.7v-37.6h-221v37.6h7.7c29.7,0,48.6,15,63.1,50.2
		l112,275.1h58.1l88.1-213.8l84.7,209.1l1.9,4.8h59l112-275.1C670.6,871.8,691.6,855.9,723.4,855.9z"/>
	<path d="M1119.5,1474.2c0,0,0.6-339.8,0.6-419.5V951.9c0-89.3-51.5-144.8-134.4-144.8c-52.8,0-94.2,25.7-119.9,54.5V664.2l-170,21
		V722h7.7c44.2,0,52.9,6.9,52.9,85.6v247.2c0,81.5-12,85.6-46.5,85.6h-7.7v37.6h219.4v-37.6h-7.7c-35.8,0-48.2-4.1-48.2-85.6v-84.5
		c0-57.9,43.1-96.8,83.3-96.8c28.7,0,61.7,9.9,61.7,87.2v94.1c0,12.3-0.6,419.5-0.6,419.5c0,79-11.8,85.6-48.2,85.6h-7.7v37.6h221.8
		v-37.6h-7.7C1132,1559.8,1119.5,1555.7,1119.5,1474.2z"/>
	<path d="M1413.5,1140.4h-7.7c-42.9,0-53-7.9-53-85.6V805.3l-170,20.2v36.8h7.7c43.6,0,52.9,7.4,52.9,85.6v106.8
		c0,81.7-12.7,85.6-52.9,85.6h-7.7v37.6h230.6V1140.4z"/>
	<path d="M1295.8,779.4c33.4,0,59.5-25.8,59.5-58.7c0-32.9-26.1-58.7-59.5-58.7c-32.9,0-58.7,25.8-58.7,58.7
		C1237.1,753.6,1262.9,779.4,1295.8,779.4z"/>
	<path d="M1470.7,1070.7c0,74.3,37.5,115.3,105.7,115.3c40.7,0,83-20.6,110.3-53.8l3.5-4.2l-22-35.4l-6.8,5.9
		c-18.7,16.2-32.9,22.8-49.2,22.8c-8,0-32.2,0-32.2-50.5V870.2h86.9v-52h-86.9V716.2h-56l-0.7,6.8c-6.3,59.1-38.3,92.3-98,101.7
		l-6.5,1v44.5h51.8V1070.7z"/>
	<path d="M1881.7,1187.6c87.4,0,141.3-39.8,165.6-63.6l4.7-4.6l-29.6-41l-6.4,5.8c-17.4,15.9-54,42.7-102.5,42.7
		c-68.6,0-97.3-36.4-99.2-125.5v-12.3h218.4l1.5-5.8c2.6-10.6,5-21.5,5-36.9c0-67.5-55.2-139.2-157.5-139.2
		c-89.6,0-182.3,70.6-182.3,188.6C1699.4,1106.9,1776.1,1187.6,1881.7,1187.6z M1935.6,936.3H1820c10-47.8,32.8-74,64.9-74
		c32.6,0,51.3,21.9,51.3,60.1C1936.3,927.1,1936,932.1,1935.6,936.3z"/>
	<path d="M905.5,1300.3c4.8,10.9,13.7,25.3,35.7,25.3c23.4,0,40.4-18.3,40.4-43.5c0-32.2-26.8-54.7-65.1-54.7
		c-22.5,0-50.4,12.3-71.4,31c-26.6-19.7-67.5-31.8-108.8-31.8c-93.6,0-161.5,52.5-161.5,124.9c0,42.8,24.1,80,65.4,102.6
		c-41.3,14.2-67.7,48.9-67.7,81.6c0,36.7,27.7,107.7,148.5,109.5c112.3,2.6,121.7,21.7,121.7,41c0,25.5-38.2,51.3-111.1,51.3
		c-67.2,0-108.8-23.3-108.8-45c0-16.8,11.8-25.4,21.7-29.6l15.5-6.6l-38.9-18.7l-2.4,0.4c-29.8,5-61.4,28.6-61.4,62.6
		c0,41.8,45.6,90.6,174.3,90.6c111.5,0,189.5-53,189.5-128.8c0-77.5-63.7-120.5-193.3-122.7c-50.5-0.6-78.6-11.3-78.6-27.3
		c0-13.4,18.5-28.3,105.4-36.8c84.8-7.5,141.8-57.3,141.8-124c0-13.6-2.7-38.6-19.4-60.6c5.9-4.6,11.2-6.7,14.1-6.7
		C898.6,1284.1,901.1,1287.8,905.5,1300.3z M685.8,1351.4c0-47.3,18.4-74.5,50.5-74.5c31.6,0,49.8,27.1,49.8,74.5
		c0,46.6-18.6,74.5-49.8,74.5S685.8,1397.4,685.8,1351.4z"/>
	<path d="M1392.4,1223.4c-112.9,0-201.4,85-201.4,193.4c0,108.5,88.4,193.4,201.4,193.4c113.4,0,202.2-85,202.2-193.4
		C1594.6,1308.3,1505.8,1223.4,1392.4,1223.4z M1392.4,1555.9c-56.3,0-84.8-46.8-84.8-139.1c0-92.3,28.5-139,84.8-139
		c70.8,0,85.6,75.6,85.6,139C1478,1480.2,1463.2,1555.9,1392.4,1555.9z"/>
	<path d="M2023.5,1275.4v-37.6h-168.4v37.6h7.7c17.5,0,28.3,3,32.3,9c4,6.1,2.3,18-5,35.2l-67.1,149.5l-67.2-149.6
		c-7.7-16.7-9.5-28.3-5.5-34.5c4.1-6.4,16-9.7,35.2-9.7h7.7v-37.6h-221.8v37.6h7.7c28.7,0,46.5,14.2,63.2,50.5l124,274.8h58.5
		l124.8-274.8c15.6-34.9,36.1-50.5,66.3-50.5H2023.5z"/>
	<path d="M2323.2,1497.9l-6.4,5.8c-17.4,15.9-54,42.7-102.5,42.7c-68.6,0-97.3-36.4-99.2-125.5v-12.3h218.4l1.5-5.8
		c2.6-10.6,5-21.5,5-36.9c0-67.5-55.2-139.2-157.5-139.2c-89.6,0-182.3,70.6-182.3,188.6c0,111.1,76.7,191.8,182.3,191.8
		c87.4,0,141.3-39.8,165.6-63.6l4.7-4.6L2323.2,1497.9z M2236.3,1355.7h-115.6c10-47.8,32.8-74,64.9-74c32.6,0,51.3,21.9,51.3,60.1
		C2237,1346.6,2236.7,1351.6,2236.3,1355.7z"/>
</g>
</svg>
